# Blender 3.1.0 Beta
# www.blender.org
mtllib odd.mtl
o Cube
v 1.000000 1.000000 -1.000000
v 1.000000 -1.000000 -1.000000
v 1.000000 1.000000 1.000000
v 1.000000 -1.000000 1.000000
v -1.000000 1.000000 -1.000000
v -1.000000 -1.000000 -1.000000
v -1.000000 1.000000 1.000000
v -1.000000 -1.000000 1.000000
v -1.224745 -1.224745 -0.000000
v -0.000000 -1.224745 -1.224745
v 1.224745 -0.000000 -1.224745
v -1.224745 -0.000000 1.224745
v 1.224745 -0.000000 1.224745
v -1.224745 -0.000000 -1.224745
v 0.000000 1.224745 1.224745
v 1.224745 1.224745 -0.000000
v 0.000000 -1.224745 1.224745
v -1.224745 1.224745 -0.000000
v 0.000000 1.224745 -1.224745
v 1.224745 -1.224745 -0.000000
v 0.000000 -0.000000 -1.732050
v 1.732050 -0.000000 -0.000000
v 0.000000 -1.732050 -0.000000
v -1.732050 -0.000000 0.000000
v 0.000000 -0.000000 1.732050
v 0.000000 1.732051 -0.000000
vn -0.2817 0.8865 0.3672
vn -0.3672 0.2817 0.8865
vn -0.8865 0.2817 -0.3672
vn 0.2817 -0.8865 0.3672
vn 0.8865 0.2817 0.3672
vn 0.3672 0.2817 -0.8865
vn 0.2817 -0.3672 -0.8865
vn -0.2817 -0.3672 -0.8865
vn -0.3672 0.2817 -0.8865
vn 0.8865 -0.3672 0.2817
vn 0.8865 -0.3672 -0.2817
vn 0.8865 0.2817 -0.3672
vn -0.3672 -0.8865 0.2817
vn -0.3672 -0.8865 -0.2817
vn 0.2817 -0.8865 -0.3672
vn -0.8865 -0.3672 -0.2817
vn -0.8865 -0.3672 0.2817
vn -0.8865 0.2817 0.3672
vn -0.2817 -0.3672 0.8865
vn 0.2817 -0.3672 0.8865
vn 0.3672 0.2817 0.8865
vn 0.3672 0.8865 0.2817
vn 0.3672 0.8865 -0.2817
vn -0.2817 0.8865 -0.3672
vn -0.3672 0.8865 0.2817
vn -0.2817 0.3672 0.8865
vn -0.8865 0.3672 -0.2817
vn 0.3672 -0.8865 0.2817
vn 0.8865 0.3672 0.2817
vn 0.2817 0.3672 -0.8865
vn 0.3672 -0.2817 -0.8865
vn -0.3672 -0.2817 -0.8865
vn -0.2817 0.3672 -0.8865
vn 0.8865 -0.2817 0.3672
vn 0.8865 -0.2817 -0.3672
vn 0.8865 0.3672 -0.2817
vn -0.2817 -0.8865 0.3672
vn -0.2817 -0.8865 -0.3672
vn 0.3672 -0.8865 -0.2817
vn -0.8865 -0.2817 -0.3672
vn -0.8865 -0.2817 0.3672
vn -0.8865 0.3672 0.2817
vn -0.3672 -0.2817 0.8865
vn 0.3672 -0.2817 0.8865
vn 0.2817 0.3672 0.8865
vn 0.2817 0.8865 0.3672
vn 0.2817 0.8865 -0.3672
vn -0.3672 0.8865 -0.2817
vt 0.625000 0.500000
vt 0.375000 0.500000
vt 0.625000 0.750000
vt 0.375000 0.750000
vt 0.625000 0.250000
vt 0.875000 0.500000
vt 0.125000 0.500000
vt 0.375000 0.250000
vt 0.875000 0.750000
vt 0.625000 1.000000
vt 0.625000 0.000000
vt 0.125000 0.750000
vt 0.375000 0.000000
vt 0.375000 1.000000
vt 0.125000 0.625000
vt 0.375000 0.125000
vt 0.375000 0.375000
vt 0.250000 0.500000
vt 0.500000 0.500000
vt 0.500000 0.000000
vt 0.500000 1.000000
vt 0.500000 0.750000
vt 0.500000 0.250000
vt 0.625000 0.875000
vt 0.750000 0.750000
vt 0.625000 0.625000
vt 0.375000 0.875000
vt 0.250000 0.750000
vt 0.625000 0.125000
vt 0.875000 0.625000
vt 0.625000 0.375000
vt 0.750000 0.500000
vt 0.375000 0.625000
vt 0.500000 0.375000
vt 0.500000 0.625000
vt 0.250000 0.625000
vt 0.500000 0.125000
vt 0.500000 0.875000
vt 0.750000 0.625000
s 0
usemtl Material
f 26/39/1 7/9/1 15/25/1
f 25/38/2 7/10/2 12/21/2
f 24/37/3 5/5/3 14/23/3
f 23/36/4 4/4/4 17/28/4
f 22/35/5 3/3/5 13/22/5
f 21/34/6 1/1/6 11/19/6
f 21/34/7 2/2/7 10/17/7
f 6/8/8 21/34/8 10/17/8
f 5/5/9 21/34/9 14/23/9
f 22/35/10 4/4/10 20/33/10
f 2/2/11 22/35/11 20/33/11
f 1/1/12 22/35/12 11/19/12
f 23/36/13 8/12/13 9/15/13
f 6/7/14 23/36/14 9/15/14
f 2/2/15 23/36/15 10/18/15
f 24/37/16 6/8/16 9/16/16
f 8/13/17 24/37/17 9/16/17
f 7/11/18 24/37/18 12/20/18
f 25/38/19 8/14/19 17/27/19
f 4/4/20 25/38/20 17/27/20
f 3/3/21 25/38/21 13/22/21
f 26/39/22 3/3/22 16/26/22
f 1/1/23 26/39/23 16/26/23
f 5/6/24 26/39/24 19/32/24
f 26/39/25 18/30/25 7/9/25
f 25/38/26 15/24/26 7/10/26
f 24/37/27 18/29/27 5/5/27
f 23/36/28 20/33/28 4/4/28
f 22/35/29 16/26/29 3/3/29
f 21/34/30 19/31/30 1/1/30
f 21/34/31 11/19/31 2/2/31
f 6/8/32 14/23/32 21/34/32
f 5/5/33 19/31/33 21/34/33
f 22/35/34 13/22/34 4/4/34
f 2/2/35 11/19/35 22/35/35
f 1/1/36 16/26/36 22/35/36
f 23/36/37 17/28/37 8/12/37
f 6/7/38 10/18/38 23/36/38
f 2/2/39 20/33/39 23/36/39
f 24/37/40 14/23/40 6/8/40
f 8/13/41 12/20/41 24/37/41
f 7/11/42 18/29/42 24/37/42
f 25/38/43 12/21/43 8/14/43
f 4/4/44 13/22/44 25/38/44
f 3/3/45 15/24/45 25/38/45
f 26/39/46 15/25/46 3/3/46
f 1/1/47 19/32/47 26/39/47
f 5/6/48 18/30/48 26/39/48
